<?xml version="1.0" encoding="utf-8" ?>
<svg xmlns="http://www.w3.org/2000/svg" xmlns:xlink="http://www.w3.org/1999/xlink" width="1024" height="1023">
	<path fill="#FC625D" transform="scale(2 2)" d="M333.38 361.21C334.55 363.191 337.597 364.171 337.762 366.623C335.923 370.072 332.391 364.731 331.194 363.342L333.38 361.21Z"/>
	<path transform="scale(2 2)" d="M408.462 306.957C415.886 306.873 406.639 327.427 405.042 331C395.006 353.452 379.776 372.424 356.468 381.349C356.727 381.67 365.886 388.494 359.21 388.749C357.432 388.817 352.139 384.111 350.418 382.776C344.136 378.142 355.841 368.267 357.154 368.138C360.892 369.547 356.506 374.25 355.822 376.489L355.715 376.847C380.067 370.612 400.719 337.068 405.993 314.305C406.562 311.853 406.698 308.895 408.462 306.957Z"/>
	<path fill="#FC625D" transform="scale(2 2)" d="M467.998 179.347C468.706 181.791 469.826 184.206 470.301 186.695C474.649 209.474 462.636 235.677 441.834 246.408C438.87 247.937 435.183 248.967 432.608 251.094C428.562 254.435 425.917 262.424 420.307 263.173C418.113 262.807 416.7 262.091 414.676 261.287C420.5 258.419 423.043 251.226 427.716 247.033C429.99 244.993 433.319 244.022 436.038 242.659C453.789 233.758 466.643 214.524 467.934 194.763C468.262 189.74 467.356 184.587 467.96 179.635L467.998 179.347Z"/>
	<path transform="scale(2 2)" d="M148.812 136.198C151.154 136.24 160.744 142.774 161.789 144.041C163.592 146.228 156.403 157.026 154.705 158.174C147.545 159.896 155.143 149.874 155.945 148.721C130.352 160.757 113.671 178.397 104 205.575C102.888 208.419 101.164 216.116 99.3615 217.936C98.4596 218.847 97.0686 219.27 96.5669 217.788C95.2322 213.845 101.325 200.273 103.089 196.459C113.22 174.556 131.47 152.742 154.681 144.264C152.092 142.761 144.762 139.867 148.812 136.198Z"/>
	<path fill="#FC625D" transform="scale(2 2)" d="M338.557 374.648C342.033 377.802 343.02 378.553 343.261 383.465C343.781 394.077 345.138 430.213 343.099 439.858C339.455 457.091 327.091 456.807 314.211 456.945C291.44 457.19 268.733 456.393 245.981 455.861C242.278 455.775 238.129 456.053 234.492 455.402C235.152 455.341 235.823 455.335 236.485 455.306C235.114 455.028 233.644 455.052 232.248 454.981L232.037 454.737L232.137 454.509C235.413 454.687 239.447 454.785 242.645 454.053C248.445 453.852 254.325 454.05 260.133 454.051L294.812 454.061C304.928 454.078 316.632 455.954 325.732 450.482C340.727 441.466 338.565 427.611 338.556 412.491L338.55 385.723C338.541 382.346 337.573 377.859 338.557 374.648Z"/>
	<path transform="scale(2 2)" d="M144.759 281.937L144.764 243.693C144.762 227.768 143.279 208.85 165.152 205.405C172.712 204.214 181.12 204.755 188.755 204.682L330.427 202.737C333.722 202.717 340.075 201.451 342.89 203.523C345.902 209.27 329.425 206.95 327.121 206.949C321.612 206.945 316.093 207.14 310.578 207.144L190.584 208.791C184.44 208.867 169.089 208.388 163.789 209.906C145.903 215.029 148.79 233.457 148.803 247.859L148.812 284.545C150.302 286.702 151.732 288.654 153.606 290.493C154.658 293.886 156.891 296.729 158.299 299.963C163.45 311.798 165.811 324.804 163.441 337.641C163.061 338.348 162.796 338.857 161.926 338.991C158.116 339.58 159.474 334.762 159.647 332.617C162.014 303.149 141.399 286.259 141.684 279.537C142.668 280.368 143.637 281.299 144.759 281.937Z"/>
	<path transform="scale(2 2)" d="M287.721 351.088C288.997 348.452 302.276 333.503 305.867 331.716C309.553 334.595 315.353 341.41 318.883 345.123L327.643 354.327C329.532 356.308 332.51 358.539 333.38 361.21L331.194 363.342C326.897 360.484 308.941 341.646 305.867 337.641C299.612 342.844 294.671 350.817 288.689 355.322C253.41 354.382 214.641 354.989 179.651 357.088L163.406 358C160.553 358.155 157.483 358.08 154.681 358.627C152.842 360.568 151.016 362.291 148.812 363.812C145.236 366.025 142.205 367.818 139.632 371.226C138.653 373.072 137.835 374.93 137.011 376.847C136.772 380.938 136.971 384.993 137.001 389.084L137.011 422.864C137.022 432.281 136.945 438.057 141.684 446.45C146.815 450.991 154.53 450.066 160.857 450.048L284.314 450.038C301.637 450.047 332.211 454.97 334.173 430.365C334.585 425.197 334.274 419.819 334.271 414.623L334.259 384.142C334.265 380.577 333.825 374.672 334.985 371.39L335.267 371.226C336.834 371.982 338.212 372.829 338.557 374.648C337.573 377.859 338.541 382.346 338.55 385.723L338.556 412.491C338.565 427.611 340.727 441.466 325.732 450.482C316.632 455.954 304.928 454.078 294.812 454.061L260.133 454.051C254.325 454.05 248.445 453.852 242.645 454.053C239.447 454.785 235.413 454.687 232.137 454.509L232.037 454.737L232.248 454.981C233.644 455.052 235.114 455.028 236.485 455.306C235.823 455.335 235.152 455.341 234.492 455.402C226.174 455.42 217.741 455.409 209.451 454.687L154.808 454.652C142.377 454.7 131.251 446.871 128.183 434.674C126.504 428.003 127.258 419.566 127.258 412.644L127.271 382.776C127.062 369.031 134.265 356.493 148.929 354.452C151.786 354.055 154.69 354.149 157.527 353.576L157.879 353.502C164.448 353.867 171.304 353.073 177.881 352.733C196.055 351.796 213.176 351.264 231.311 351.129L287.721 351.088ZM131.5 380.036C131.718 384.237 131.513 388.468 131.503 392.675L131.484 416.817C131.486 427.798 130.617 439.954 141.684 446.45C136.945 438.057 137.022 432.281 137.011 422.864L137.001 389.084C136.971 384.993 136.772 380.938 137.011 376.847C135.21 378.402 133.99 379.815 131.5 380.036ZM134.606 369.427C132.904 372.528 131.668 376.491 131.5 380.036C133.99 379.815 135.21 378.402 137.011 376.847C137.835 374.93 138.653 373.072 139.632 371.226C137.954 369.841 136.774 367.762 134.606 369.427Z"/>
	<path fill="#E93517" transform="scale(2 2)" d="M209.451 454.687C219.777 454.99 231.867 454.03 242.645 454.053C239.447 454.785 235.413 454.687 232.137 454.509L232.037 454.737L232.248 454.981C233.644 455.052 235.114 455.028 236.485 455.306C235.823 455.335 235.152 455.341 234.492 455.402C226.174 455.42 217.741 455.409 209.451 454.687Z"/>
	<path fill="#15BBAB" transform="scale(2 2)" d="M134.606 369.427C138.503 361.35 146.058 358.827 154.681 358.627C152.842 360.568 151.016 362.291 148.812 363.812C145.236 366.025 142.205 367.818 139.632 371.226C137.954 369.841 136.774 367.762 134.606 369.427Z"/>
	<path transform="scale(2 2)" d="M384.823 134.009C414.786 120.93 451.026 137.98 463.721 167.208C465.404 171.084 465.974 175.693 467.998 179.347L467.96 179.635C467.356 184.587 468.262 189.74 467.934 194.763C466.643 214.524 453.789 233.758 436.038 242.659C433.319 244.022 429.99 244.993 427.716 247.033C423.043 251.226 420.5 258.419 414.676 261.287C408.306 263.778 403.548 252.222 398.637 249.183C396.776 248.032 393.463 247.78 391.298 247.112C384.419 244.99 378.254 242.19 372.35 238.057C361.089 228.746 358.061 223.896 351.638 211.758C345.991 193.868 347.148 179.515 354.144 162.692C354.745 161.746 355.241 160.793 355.715 159.778C365.65 148.332 367.362 140.66 384.823 134.009ZM368.978 229.392C378.452 243.276 395.182 238.26 406.318 250.774C408.956 250.403 413.046 253.839 414.676 255.859C424.185 248.413 418.47 246.893 433.478 239.382C454.258 228.984 466.34 205.882 463.367 182.859C461.816 170.851 454.799 156.326 444.899 148.721C443.157 149.072 441.164 146.812 439.665 145.989C388.572 117.954 337.002 173.475 364.798 223.446C365.806 225.26 368.553 227.498 368.978 229.392ZM368.978 229.392C368.553 227.498 365.806 225.26 364.798 223.446C337.002 173.475 388.572 117.954 439.665 145.989C441.164 146.812 443.157 149.072 444.899 148.721C433.711 138.844 418.352 133.102 403.404 134.05C355.346 137.097 334.742 199.416 368.978 229.392ZM406.318 250.774C408.332 253.335 410.624 255.674 412.847 258.053L414.676 255.859C413.046 253.839 408.956 250.403 406.318 250.774Z"/>
	<path fill="#FC625D" transform="scale(2 2)" d="M368.978 229.392C368.553 227.498 365.806 225.26 364.798 223.446C337.002 173.475 388.572 117.954 439.665 145.989C441.164 146.812 443.157 149.072 444.899 148.721C454.799 156.326 461.816 170.851 463.367 182.859C466.34 205.882 454.258 228.984 433.478 239.382C418.47 246.893 424.185 248.413 414.676 255.859C413.046 253.839 408.956 250.403 406.318 250.774C395.182 238.26 378.452 243.276 368.978 229.392ZM412.087 166.217C409.098 165.727 406.512 165.629 403.525 166.217C402.835 164.238 401.892 160.312 400.034 159.279C397.67 157.964 384.803 166.937 383.821 168.681C384.159 171.173 386.655 174.015 387.844 176.264C385.944 177.871 384.871 179.627 383.935 181.921C373.829 182.455 376.735 181.825 376.68 191.204C376.628 200.117 374.729 198.549 383.935 198.785C384.833 201.399 386.23 203.342 387.844 205.575C386.537 207.246 384.488 209.302 384.054 211.395C384.45 214.446 397.855 222.052 399.939 221.867C401.403 221.737 402.928 216.508 403.525 215.299C406.551 214.924 409.825 214.833 412.847 215.299C413.968 217.594 415.003 220.652 417.502 221.702C419.573 221.701 431.92 213.849 432.53 211.401C431.917 209.209 429.631 207.234 428.115 205.575C429.224 203.334 430.37 201.108 431.297 198.785C433.514 198.806 437.451 199.363 439.389 198.258C440.056 196.196 440.241 184.694 439.5 182.818C438.837 181.136 432.762 182.02 431.297 181.921C431.097 181.262 430.853 179.675 430.186 179.347C429.335 178.383 428.74 177.377 428.115 176.264C427.446 173.98 431.417 170.662 432.494 168.682C430.78 166.498 419.868 159.356 417.322 159.138C414.901 158.931 412.932 164.543 412.087 166.217ZM428.115 176.264C428.74 177.377 429.335 178.383 430.186 179.347C431.773 176.986 430.3 176.567 428.115 176.264Z"/>
	<path transform="scale(2 2)" d="M412.087 166.217C412.932 164.543 414.901 158.931 417.322 159.138C419.868 159.356 430.78 166.498 432.494 168.682C431.417 170.662 427.446 173.98 428.115 176.264C428.74 177.377 429.335 178.383 430.186 179.347C430.853 179.675 431.097 181.262 431.297 181.921C432.762 182.02 438.837 181.136 439.5 182.818C440.241 184.694 440.056 196.196 439.389 198.258C437.451 199.363 433.514 198.806 431.297 198.785C430.37 201.108 429.224 203.334 428.115 205.575C429.631 207.234 431.917 209.209 432.53 211.401C431.92 213.849 419.573 221.701 417.502 221.702C415.003 220.652 413.968 217.594 412.847 215.299C409.825 214.833 406.551 214.924 403.525 215.299C402.928 216.508 401.403 221.737 399.939 221.867C397.855 222.052 384.45 214.446 384.054 211.395C384.488 209.302 386.537 207.246 387.844 205.575C386.23 203.342 384.833 201.399 383.935 198.785C374.729 198.549 376.628 200.117 376.68 191.204C376.735 181.825 373.829 182.455 383.935 181.921C384.871 179.627 385.944 177.871 387.844 176.264C386.655 174.015 384.159 171.173 383.821 168.681C384.803 166.937 397.67 157.964 400.034 159.279C401.892 160.312 402.835 164.238 403.525 166.217C406.512 165.629 409.098 165.727 412.087 166.217ZM418.275 164.332C412.057 176.443 412.571 166.45 401.437 171.378C400.033 169.162 399.142 166.781 398.233 164.332C395.143 165.694 391.818 167.413 389.308 169.706C390.614 171.725 392.254 173.459 393.735 175.343C390.736 178.915 388.888 181.661 387.844 186.248C385.469 186.321 383.095 186.279 380.72 186.248C380.071 189.34 380.198 191.22 380.72 194.297C390.06 194.032 385.851 194.962 389.999 201.477C393.312 206.681 396.699 204.395 389.308 210.802C390.676 211.91 396.728 217.94 398.233 215.299C399.248 213.751 400.312 212.27 401.437 210.802C404.255 210.499 411.266 210.809 414.676 210.802C416.025 212.732 417.026 214.793 418.275 216.768C421.22 214.959 424.585 213.173 427.11 210.802C425.375 209.189 423.743 207.573 422.448 205.575C425.194 201.331 426.94 199.435 428.115 194.297C430.663 194.344 433.208 194.454 435.753 194.297C435.758 191.618 435.81 188.927 435.753 186.248C427.023 186.377 429.704 186.72 425.608 180.113C424.611 178.504 423.215 177.062 422.448 175.343C423.65 172.972 424.994 171.336 427.11 169.706C424.276 167.712 421.324 165.976 418.275 164.332Z"/>
	<path fill="#FC625D" transform="scale(2 2)" d="M148.812 363.812C174.659 362.818 201.391 360.604 227.143 360.36L271.42 360.366C277.097 360.368 286.1 360.852 291.411 360.18C297.165 359.452 304.269 346.871 310.149 343.414C317.659 352.301 326.239 360.24 333.683 369.147C334.214 369.782 334.686 370.674 335.267 371.226L334.985 371.39C333.825 374.672 334.265 380.577 334.259 384.142L334.271 414.623C334.274 419.819 334.585 425.197 334.173 430.365C332.211 454.97 301.637 450.047 284.314 450.038L160.857 450.048C154.53 450.066 146.815 450.991 141.684 446.45C136.945 438.057 137.022 432.281 137.011 422.864L137.001 389.084C136.971 384.993 136.772 380.938 137.011 376.847C137.835 374.93 138.653 373.072 139.632 371.226C142.205 367.818 145.236 366.025 148.812 363.812Z"/>
	<path transform="scale(2 2)" d="M202.215 393.953C203.312 394.02 204.377 393.961 205.148 394.869C211.209 402.014 189.247 400.414 187.029 399.914C185.973 399.14 186.1 397.202 185.846 395.984C187.23 395.455 198.448 395.963 200.973 395.984C201.43 395.346 201.813 394.628 202.215 393.953Z"/>
	<path fill="white" transform="scale(2 2)" d="M185.846 395.984C184.201 395.557 181.966 393.205 183.092 391.464C183.495 390.841 200.381 385.747 202.215 393.953C201.813 394.628 201.43 395.346 200.973 395.984C198.448 395.963 187.23 395.455 185.846 395.984Z"/>
	<path transform="scale(2 2)" d="M282.345 393.953C285.639 395.34 286.843 398.585 282.981 399.868C280.485 400.697 241.46 400.53 233.766 400.272C230.918 400.176 229 399.327 229.36 395.984C245.326 394.921 264.009 396.212 280.333 395.984L282.345 393.953Z"/>
	<path transform="scale(2 2)" d="M248.749 411.029C250.476 411.92 251.707 412.504 252.375 414.495C254.148 419.783 239.512 418.189 237.044 418.185L197.902 418.184C191.765 418.201 185.535 420.507 185.062 413.758C186.749 413.498 188.71 413.708 190.427 413.725L231.962 413.76C237.198 413.761 242.483 413.951 247.712 413.758C248.137 412.866 248.444 411.969 248.749 411.029Z"/>
	<path fill="white" transform="scale(2 2)" d="M229.36 395.984C226.775 395.31 225.011 391.157 227.924 390.407C232.759 389.163 270.287 389.693 276.841 390.084C280.363 390.295 281.467 390.371 282.345 393.953L280.333 395.984C264.009 396.212 245.326 394.921 229.36 395.984Z"/>
	<path fill="white" transform="scale(2 2)" d="M185.062 413.758C182.718 414.159 175.878 408.054 192.501 408.078L211.256 408.08C221.905 408.079 232.634 407.789 243.271 408.164C246.277 408.27 247.784 407.946 248.749 411.029C248.444 411.969 248.137 412.866 247.712 413.758C242.483 413.951 237.198 413.761 231.962 413.76L190.427 413.725C188.71 413.708 186.749 413.498 185.062 413.758Z"/>
	<path fill="#5661EE" transform="scale(2 2)" d="M210.656 174.638C208.993 175.901 205.178 180.615 203.059 180.506C198.857 176.963 193.668 169.272 190.019 164.684C176.937 148.237 171.672 146.239 171.65 123.587L171.648 90.7906C171.651 85.4605 171.354 79.9442 172.46 74.7014C176.144 57.2335 190.486 53.7239 205.426 53.7401L344.046 53.7385C360.086 53.7398 368.684 54.859 378.11 69.9909C386.512 78.6275 384.832 90.2882 384.833 101.302L384.823 134.009C367.362 140.66 365.65 148.332 355.715 159.778C355.241 160.793 354.745 161.746 354.144 162.692L272.964 162.686C268.034 162.687 237.495 162.089 234.645 163.158C231.157 164.465 218.545 177.752 215.221 180.95C213.732 178.82 212.214 176.719 210.656 174.638ZM210.656 174.638C216.167 169.847 221.509 164.879 226.734 159.778C237.833 159.969 248.962 159.779 260.064 159.777L326.339 159.775C329.571 159.775 354.578 160.162 355.715 159.778C355.787 157.816 356.109 155.736 353.533 155.717L271.219 155.836C264.953 155.835 227.938 155.289 225.382 156.208C223.272 156.967 210.85 168.856 208.087 171.378C205.743 168.5 192.42 157.694 188.797 155.829C188.05 155.553 187.146 154.306 186.692 153.645C186.52 152.178 185.197 150.247 184.597 148.869C180.699 139.927 180.87 132.492 180.868 122.85L180.884 102.51C180.888 96.0017 180.248 89.0524 180.834 82.5965C182.905 59.7436 203.751 61.2336 219.74 61.2507L346.927 61.2614C355.028 61.2681 358.585 61.9715 365.984 62.6024L366.465 62.6386C377.116 71.2261 376.703 82.1284 376.704 94.4062L376.694 114.808C376.691 118.101 376.294 121.882 376.712 125.118C376.899 126.574 379.33 128.997 380.362 127.044C381.1 125.646 380.896 83.1517 380.481 78.8968C380.177 75.7802 378.326 73.0136 378.11 69.9909C368.684 54.859 360.086 53.7398 344.046 53.7385L205.426 53.7401C190.486 53.7239 176.144 57.2335 172.46 74.7014C171.354 79.9442 171.651 85.4605 171.648 90.7906L171.65 123.587C171.672 146.239 176.937 148.237 190.019 164.684C193.668 169.272 198.857 176.963 203.059 180.506C205.178 180.615 208.993 175.901 210.656 174.638Z"/>
	<path transform="scale(2 2)" d="M315.468 115.515C328.646 120.371 306.042 120.419 302.861 120.2C302.821 118.961 302.728 117.707 302.861 116.472C305.628 116.492 313.336 117.178 315.468 115.515Z"/>
	<path fill="white" transform="scale(2 2)" d="M302.861 116.472C297.455 115.508 298.05 110.648 307.161 110.783C311.515 110.847 315.658 110.118 315.468 115.515C313.336 117.178 305.628 116.492 302.861 116.472Z"/>
	<path transform="scale(2 2)" d="M328.049 94.273C329.977 94.2556 332.772 96.1968 330.414 97.9804C329.207 98.8935 305.331 98.7798 302.7 98.2619C301.981 97.6857 301.791 96.5522 301.524 95.6991L301.693 95.2826L302.861 95.0563C307.883 95.1129 323.762 95.7517 328.049 94.273Z"/>
	<path fill="white" transform="scale(2 2)" d="M302.861 95.0563C300.741 95.0683 298.664 93.931 299.236 91.3486C301.717 87.6319 311.571 89.5482 315.329 89.5446C321.416 89.5387 327.39 87.0348 328.049 94.273C323.762 95.7517 307.883 95.1129 302.861 95.0563Z"/>
	<path transform="scale(2 2)" d="M286.22 115.515C287.911 115.596 289.603 116.085 289.603 118.124C289.603 121.215 276.447 120.212 274.434 120.208L242.365 120.223C237.409 120.238 232.61 121.93 232.08 116.472C236.153 116.102 240.602 116.46 244.707 116.463L272.425 116.48C276.167 116.481 283.059 117.742 286.22 115.515Z"/>
	<path transform="scale(2 2)" d="M286.22 94.273C288.456 94.1021 290.92 96.3867 288.663 98.0169C287.456 98.8889 221.123 99.1232 219.108 98.3707C217.791 97.8789 217.844 96.2173 217.849 95.0563C232.873 93.1127 278.696 97.7492 286.22 94.273Z"/>
	<path fill="white" transform="scale(2 2)" d="M232.08 116.472C228.162 116.442 227.541 111.415 231.496 110.968C233.94 110.692 236.524 110.84 238.985 110.839L270.754 110.85C276.437 110.856 286.51 108.581 286.22 115.515C283.059 117.742 276.167 116.481 272.425 116.48L244.707 116.463C240.602 116.46 236.153 116.102 232.08 116.472Z"/>
	<path fill="white" transform="scale(2 2)" d="M217.849 95.0563C214.368 94.4427 212.855 89.9765 217.259 89.539C220.193 89.2476 223.353 89.4699 226.308 89.4687L269.373 89.4679C276.13 89.4657 285.698 86.7079 286.22 94.273C278.696 97.7492 232.873 93.1127 217.849 95.0563Z"/>
	<path transform="scale(2 2)" d="M210.656 174.638C208.993 175.901 205.178 180.615 203.059 180.506C198.857 176.963 193.668 169.272 190.019 164.684C176.937 148.237 171.672 146.239 171.65 123.587L171.648 90.7906C171.651 85.4605 171.354 79.9442 172.46 74.7014C176.144 57.2335 190.486 53.7239 205.426 53.7401L344.046 53.7385C360.086 53.7398 368.684 54.859 378.11 69.9909C378.326 73.0136 380.177 75.7802 380.481 78.8968C380.896 83.1517 381.1 125.646 380.362 127.044C379.33 128.997 376.899 126.574 376.712 125.118C376.294 121.882 376.691 118.101 376.694 114.808L376.704 94.4062C376.703 82.1284 377.116 71.2261 366.465 62.6386L365.984 62.6024C358.585 61.9715 355.028 61.2681 346.927 61.2614L219.74 61.2507C203.751 61.2336 182.905 59.7436 180.834 82.5965C180.248 89.0524 180.888 96.0017 180.884 102.51L180.868 122.85C180.87 132.492 180.699 139.927 184.597 148.869C185.197 150.247 186.52 152.178 186.692 153.645C187.146 154.306 188.05 155.553 188.797 155.829C192.42 157.694 205.743 168.5 208.087 171.378C210.85 168.856 223.272 156.967 225.382 156.208C227.938 155.289 264.953 155.835 271.219 155.836L353.533 155.717C356.109 155.736 355.787 157.816 355.715 159.778C354.578 160.162 329.571 159.775 326.339 159.775L260.064 159.777C248.962 159.779 237.833 159.969 226.734 159.778C221.509 164.879 216.167 169.847 210.656 174.638ZM186.692 153.645C186.52 152.178 185.197 150.247 184.597 148.869C180.699 139.927 180.87 132.492 180.868 122.85L180.884 102.51C180.888 96.0017 180.248 89.0524 180.834 82.5965C182.905 59.7436 203.751 61.2336 219.74 61.2507L346.927 61.2614C355.028 61.2681 358.585 61.9715 365.984 62.6024L366.465 62.6386C354.543 55.2321 340.833 57.8611 327.058 57.8721L222.073 57.8845C197.076 57.8836 175.645 53.4935 175.725 87.418L175.729 121.289C175.699 137.822 176.028 140.432 186.692 153.645ZM188.797 155.829C192.868 162.204 198.884 169.377 203.626 175.343L208.087 171.378C205.743 168.5 192.42 157.694 188.797 155.829Z"/>
	<path fill="#15BBAB" transform="scale(2 2)" d="M351.638 211.758C358.061 223.896 361.089 228.746 372.35 238.057C371.996 253.696 372.361 269.431 372.36 285.08C372.359 296.22 375.016 312.607 360.584 316.645C354.61 318.317 335.364 317.593 328.049 317.48L325.542 315.119L302.382 315.106C298.396 315.095 294.372 314.937 290.392 315.119C287.127 318.117 279.265 316.761 275.184 316.761L171.918 316.669C169.767 316.67 167.596 316.411 165.461 316.742C166.111 323.695 167.041 331.955 166.335 338.882C165.925 341.269 165.82 342.259 163.159 341.954C161.817 342.643 158.821 351.464 157.879 353.502L157.527 353.576C154.69 354.149 151.786 354.055 148.929 354.452C134.265 356.493 127.062 369.031 127.271 382.776C112.538 390.335 88.0422 388.907 75.8028 377.604C21.7227 349.273 34.4301 272.089 96.2583 263.173C96.2552 260.388 94.7235 252.381 98.9914 251.875C100.878 251.651 112.113 259.517 113.91 261.287C122.524 266.458 133.965 275.455 141.684 279.537C141.399 286.259 162.014 303.149 159.647 332.617C159.474 334.762 158.116 339.58 161.926 338.991C162.796 338.857 163.061 338.348 163.441 337.641C165.811 324.804 163.45 311.798 158.299 299.963C156.891 296.729 154.658 293.886 153.606 290.493C154.22 288.596 153.595 284.665 153.582 282.528L153.592 254.188C153.589 247.223 152.869 238.481 154.433 231.806C159.183 211.522 177.839 213.92 193.324 213.683L331.524 212.038C338.232 211.982 344.928 211.74 351.638 211.758ZM96.2583 263.173C34.4301 272.089 21.7227 349.273 75.8028 377.604C78.8592 377.975 81.6281 379.807 84.5897 380.612C88.8342 381.765 113.953 385.471 116.106 380.093C117.787 375.895 108.746 378.292 107.432 378.446C89.3419 380.568 69.5561 371.889 58.1077 357.722C57.6676 355.219 55.7829 352.62 54.7248 350.301C38.9414 315.705 65.7504 272.28 105.99 271.935C105.909 270.32 105.966 268.699 105.99 267.083C107.355 265.086 108.331 264.182 110.533 263.173C111.959 263.563 113.047 262.192 113.91 261.287C112.113 259.517 100.878 251.651 98.9914 251.875C94.7235 252.381 96.2552 260.388 96.2583 263.173ZM266.347 271.935L194.843 272.519C186.462 281.205 209.352 277.766 213.809 278.024L256.346 278.03C262.356 278.033 268.59 277.341 274.539 278.024C272.155 275.683 269.619 272.96 266.347 271.935ZM130.836 322.054C131.048 321.108 131.206 320.103 131.5 319.182C129.833 316.106 116.648 308.357 113.056 306.957L112.95 307.266C116.236 310.542 127.014 319.907 130.836 322.054ZM99.6139 351.088C97.5417 349.449 95.5454 348.423 93.2509 347.182C90.4837 348.951 86.7018 344.923 84.5669 343.414L84.4744 343.757C87.7218 347.098 96.6837 358.741 99.6139 351.088Z"/>
	<path fill="white" transform="scale(2 2)" d="M74.3381 318.301C77.1537 316.495 79.556 314.505 82.8656 313.721C83.553 314.255 84.2749 314.692 84.6074 315.529C84.2963 316.766 74.6297 325.456 73.0822 326.557C72.2161 323.566 73.0269 320.986 74.3381 318.301Z"/>
	<path transform="scale(2 2)" d="M209.451 260.712C210.423 260.87 211.618 261.048 212.287 261.864C216.392 266.876 199.197 266.237 197.135 265.245C196.46 264.1 196.687 262.561 196.771 261.287C200.41 261.196 206.168 262.042 209.451 260.712Z"/>
	<path fill="white" transform="scale(2 2)" d="M96.2583 301.704C107.522 301.451 90.2945 312.459 88.9872 313.721C88.1549 313.915 87.4613 313.661 86.6915 313.367L86.8765 312.824L86.6646 313.358C83.2669 310.903 94.6004 303 96.2583 301.704Z"/>
	<path fill="white" transform="scale(2 2)" d="M196.771 261.287C195.081 261.074 192.129 258.962 193.62 257.177C195.385 255.063 206.454 255.897 209.451 255.859C209.677 257.496 209.575 259.074 209.451 260.712C206.168 262.042 200.41 261.196 196.771 261.287Z"/>
	<path transform="scale(2 2)" d="M321.771 239.338C325.057 240.092 327.396 243.126 323.294 245.179C321.082 246.286 300.163 248.529 304.291 242.255C309.632 241.524 315.306 241.819 320.699 241.817L321.771 239.338Z"/>
	<path transform="scale(2 2)" d="M295.123 258.053C297.195 258.412 299.357 259.243 298.502 261.867C297.062 266.288 279.767 265.38 277.884 264.716C276.788 264.329 276.756 262.237 276.62 261.287C281.96 259.738 292.424 263.394 295.123 258.053Z"/>
	<path fill="white" transform="scale(2 2)" d="M304.291 242.255C301.474 241.585 300.391 238.083 303.057 237.081C305.731 236.076 320.305 233.881 321.771 239.338L320.699 241.817C315.306 241.819 309.632 241.524 304.291 242.255Z"/>
	<path fill="white" transform="scale(2 2)" d="M274.539 255.859C277.813 254.464 293.283 252.263 295.123 258.053C292.424 263.394 281.96 259.738 276.62 261.287C273.677 261.333 274.397 257.839 274.539 255.859Z"/>
	<path transform="scale(2 2)" d="M113.056 306.957C112.432 306.299 102.94 300.168 109.308 298.699C110.076 298.815 135.102 314.933 135.939 315.998C138.239 318.924 134.246 322.533 131.5 319.182C129.833 316.106 116.648 308.357 113.056 306.957Z"/>
	<path transform="scale(2 2)" d="M129.965 323.401C131.333 323.728 132.345 325.198 132.379 326.564C131.783 328.084 109.396 348.354 107.362 349.305C105.891 349.08 104.64 348.198 104.903 346.566C105.17 344.913 126.221 326.295 129.965 323.401Z"/>
	<path fill="white" transform="scale(2 2)" d="M134.606 326.557C138.883 327.047 138.741 329.833 136.303 332.353C131.968 336.833 115.442 352.106 110.533 355.322C108.482 356.275 107.958 353.999 107.362 352.506C114.062 346.381 121.109 340.54 127.656 334.263C129.7 332.304 132.473 327.734 134.606 326.557Z"/>
	<path transform="scale(2 2)" d="M290.392 239.338C291.585 239.949 292.587 240.359 293.034 241.716C294.858 247.251 283.71 246.114 280.957 246.138L265.335 246.237C254.872 246.264 244.398 246.722 233.945 246.715C230.388 246.713 229.757 245.698 230.927 242.255C232.817 242.494 234.973 242.3 236.885 242.288L288.689 242.255C289.323 241.32 289.849 240.327 290.392 239.338Z"/>
	<path transform="scale(2 2)" d="M84.5669 343.414C79.2357 338.302 72.0073 337.052 69.0595 328.62C66.8317 322.248 69.5201 316.437 73.8201 311.794C75.8449 309.608 92.1344 292.191 94.0366 298.929C93.3959 302.586 83.2505 308.443 80.4372 311.747C78.2364 313.455 75.4979 315.72 74.3381 318.301C73.0269 320.986 72.2161 323.566 73.0822 326.557C76.6535 335.911 87.828 338.504 94.4257 344.968C94.0435 345.71 93.6736 346.463 93.2509 347.182C90.4837 348.951 86.7018 344.923 84.5669 343.414Z"/>
	<path fill="white" transform="scale(2 2)" d="M230.927 242.255C229.794 242.147 228.086 242.122 227.808 240.744C226.659 235.042 239.984 236.611 243.172 236.61L277.124 236.613C280.648 236.59 284.205 236.398 287.721 236.618C288.679 237.48 289.535 238.379 290.392 239.338C289.849 240.327 289.323 241.32 288.689 242.255L236.885 242.288C234.973 242.3 232.817 242.494 230.927 242.255Z"/>
	<path transform="scale(2 2)" d="M366.465 245.222C370.873 245.283 368.953 252.807 368.966 255.753L368.987 278.567C368.999 303.293 366.757 313.792 339.569 313.748L325.542 313.721C324.356 313.556 323.339 312.736 323.166 311.55C325.394 304.384 357.71 318.607 364.001 296.654C365.477 291.502 364.792 284.386 364.79 278.948L364.749 257.061C364.741 253.882 363.358 247.188 366.465 245.222Z"/>
	<path transform="scale(2 2)" d="M259.575 309.434C263.053 309.436 283.507 309.061 284.811 309.509C290.933 315.225 273.914 313.731 272.747 313.726L200.973 313.721C196.676 313.715 175.108 315.597 174.989 311.787C174.881 308.313 186.468 309.423 188.562 309.427L259.575 309.434Z"/>
	<path transform="scale(2 2)" d="M266.347 271.935C264.264 269.987 253.97 264.4 256.674 261.658C257.74 260.577 273.078 248.487 272.949 255.748C272.175 257.344 263.799 261.81 261.788 263.173C291.66 283.443 282.398 281.981 256.865 281.928L204.907 281.947C199.237 281.971 195.796 284.465 194.843 278.024L207.567 278.05C209.589 278.059 211.808 278.267 213.809 278.024L256.346 278.03C262.356 278.033 268.59 277.341 274.539 278.024C272.155 275.683 269.619 272.96 266.347 271.935Z"/>
	<path transform="scale(2 2)" d="M96.2583 263.173C96.2552 260.388 94.7235 252.381 98.9914 251.875C100.878 251.651 112.113 259.517 113.91 261.287C113.047 262.192 111.959 263.563 110.533 263.173C108.331 264.182 107.355 265.086 105.99 267.083C105.966 268.699 105.909 270.32 105.99 271.935C65.7504 272.28 38.9414 315.705 54.7248 350.301C55.7829 352.62 57.6676 355.219 58.1077 357.722C69.5561 371.889 89.3419 380.568 107.432 378.446C108.746 378.292 117.787 375.895 116.106 380.093C113.953 385.471 88.8342 381.765 84.5897 380.612C81.6281 379.807 78.8592 377.975 75.8028 377.604C21.7227 349.273 34.4301 272.089 96.2583 263.173ZM100.463 257.201C100.487 260.467 100.679 263.827 100.463 267.083L100.141 267.152C96.3555 267.925 92.5236 268.019 88.719 268.916C48.9226 278.293 33.6263 326.483 58.1077 357.722C57.6676 355.219 55.7829 352.62 54.7248 350.301C38.9414 315.705 65.7504 272.28 105.99 271.935C105.909 270.32 105.966 268.699 105.99 267.083C107.355 265.086 108.331 264.182 110.533 263.173C106.91 261.591 103.743 259.379 100.463 257.201Z"/>
</svg>
